<svg viewBox="0 0 25 25">
    <path fill="none" d="M0 0h25v25H0z"></path>
    <path d="M19.69 7.154l-6-3.245a2.5 2.5 0 00-2.38 0l-6 3.245A2.5 2.5 0 004 9.354v6.269a2.5 2.5 0 001.311 2.2l6 3.245a2.5 2.5 0 002.379 0l6-3.245a2.5 2.5 0 001.31-2.2V9.354a2.5 2.5 0 00-1.31-2.2zm-7.9-2.365a1.492 1.492 0 011.427 0l6 3.244a1.454 1.454 0 01.151.11l-2.931 1.665-6.743-3.886zM8.661 6.48l6.768 3.9-2.929 1.666-6.864-3.9a1.456 1.456 0 01.151-.11zM5.787 16.941A1.5 1.5 0 015 15.622V9.354a1.5 1.5 0 01.053-.39L12 12.912v7.358a1.463 1.463 0 01-.213-.083zM20 15.622a1.5 1.5 0 01-.786 1.319l-6 3.245a1.5 1.5 0 01-.214.084v-7.358l6.947-3.949a1.508 1.508 0 01.053.391z"></path>
</svg>