<svg id="visual" viewBox="0 0 900 600" width="900" height="600" xmlns="http://www.w3.org/2000/svg" xmlns:xlink="http://www.w3.org/1999/xlink" version="1.1">
    <path d="M0 115L82 115L164 103L245 55L327 55L409 67L491 73L573 127L655 61L736 121L818 145L900 151L900 0L818 0L736 0L655 0L573 0L491 0L409 0L327 0L245 0L164 0L82 0L0 0Z" fill="#00cc8e"></path>
    <path d="M0 253L82 289L164 313L245 283L327 223L409 283L491 337L573 259L655 163L736 217L818 283L900 355L900 149L818 143L736 119L655 59L573 125L491 71L409 65L327 53L245 53L164 101L82 113L0 113Z" fill="#00b98a"></path>
    <path d="M0 427L82 475L164 397L245 415L327 433L409 409L491 433L573 409L655 439L736 469L818 481L900 445L900 353L818 281L736 215L655 161L573 257L491 335L409 281L327 221L245 281L164 311L82 287L0 251Z" fill="#00a784"></path>
    <path d="M0 523L82 547L164 493L245 481L327 469L409 499L491 511L573 487L655 493L736 559L818 535L900 517L900 443L818 479L736 467L655 437L573 407L491 431L409 407L327 431L245 413L164 395L82 473L0 425Z" fill="#00957c"></path>
    <path d="M0 601L82 601L164 601L245 601L327 601L409 601L491 601L573 601L655 601L736 601L818 601L900 601L900 515L818 533L736 557L655 491L573 485L491 509L409 497L327 467L245 479L164 491L82 545L0 521Z" fill="#038373"></path>
</svg>